<svg xmlns="http://www.w3.org/2000/svg" width="512" height="512" viewBox="0 0 512 512">
  <defs>
    <mask id="tomatoMask">
      <rect width="100%" height="100%" fill="black"/>
      <path d="M256 80c-107 0-194 83-194 185 0 102 87 185 194 185s194-83 194-185c0-102-87-185-194-185z" fill="white"/>
      <circle cx="256" cy="300" r="95" fill="none" stroke="black" stroke-width="35" stroke-linecap="round" stroke-dasharray="450 146" stroke-dashoffset="-60"/>
    </mask>
  </defs>
  <g mask="url(#tomatoMask)">
    <path d="M256 80c-107 0-194 83-194 185 0 102 87 185 194 185s194-83 194-185c0-102-87-185-194-185z" fill="#000000"/>
  </g>
  <path d="M228 82c4-18 16-32 28-32 12 0 24 14 28 32 12-5 24-6 36-3-10 22-26 35-48 40-22-5-38-18-48-40 12-3 24-2 36 3z" fill="#000000"/>
</svg>
